<svg xmlns="http://www.w3.org/2000/svg" viewBox="0 0 100 100" fill="none" shape-rendering="auto"><metadata xmlns:rdf="http://www.w3.org/1999/02/22-rdf-syntax-ns#" xmlns:xsi="http://www.w3.org/2001/XMLSchema-instance" xmlns:dc="http://purl.org/dc/elements/1.1/" xmlns:dcterms="http://purl.org/dc/terms/"><rdf:RDF><rdf:Description><dc:title>Glass</dc:title><dc:creator>DiceBear</dc:creator><dc:source xsi:type="dcterms:URI">https://www.dicebear.com</dc:source><dcterms:license xsi:type="dcterms:URI">https://creativecommons.org/publicdomain/zero/1.0/</dcterms:license><dc:rights>„Glass” (https://www.dicebear.com) by „DiceBear”, licensed under „CC0 1.0” (https://creativecommons.org/publicdomain/zero/1.0/)</dc:rights></rdf:Description></rdf:RDF></metadata><mask id="viewboxMask"><rect width="100" height="100" rx="50" ry="50" x="0" y="0" fill="#fff" /></mask><g mask="url(#viewboxMask)"><rect fill="#47b4eb" width="100" height="100" x="0" y="0" /><g style="mix-blend-mode:screen" opacity="0.6" filter="url(#dicebearGlass-a)"><g transform="translate(-25 -25)"><g transform="translate(-72, -58) rotate(21 75 75)"><path d="M101.6 51.2a20 20 0 0 0-14.7-14.5q-3.9-1-8.5-1-10 0-17 4.7A30 30 0 0 0 50.9 54q-3.6 9-3.6 21.6 0 12.8 3.5 21.8 3.4 9 10.3 14a29 29 0 0 0 17.2 4.8q9 0 15-2.6 6-2.7 9-7.5t3-11.4l6.8.7H78.7v-28h64.5v20q0 20-8.4 34.1a56 56 0 0 1-23.2 21.6Q97 150.7 78 150.7q-21.3 0-37.3-9t-25-25.8q-9-16.5-9-39.7a87 87 0 0 1 5.4-32 67 67 0 0 1 38-38q12.9-5 27.6-5 12.9 0 24 3.7 11.1 3.6 19.7 10.4a50 50 0 0 1 20.2 36z" fill="white"/></g></g></g><g style="mix-blend-mode:screen" opacity="0.6" filter="url(#dicebearGlass-b)"><g transform="translate(-25 -25)"><g transform="translate(-17, -2) rotate(31 75 75)"><path d="M94.8 3.1v145.5H55.3V3z" fill="white"/></g></g></g><defs><filter id="dicebearGlass-a" x="-57" y="-57" width="214" height="214" filterUnits="userSpaceOnUse" color-interpolation-filters="sRGB"><feFlood flood-opacity="0" result="BackgroundImageFix"/><feBlend in="SourceGraphic" in2="BackgroundImageFix" result="shape"/><feGaussianBlur stdDeviation="16" result="effect1_foregroundBlur_25_7"/></filter><filter id="dicebearGlass-b" x="-57" y="-57" width="214" height="214" filterUnits="userSpaceOnUse" color-interpolation-filters="sRGB"><feFlood flood-opacity="0" result="BackgroundImageFix"/><feBlend in="SourceGraphic" in2="BackgroundImageFix" result="shape"/><feGaussianBlur stdDeviation="16" result="effect1_foregroundBlur_25_7"/></filter></defs></g></svg>