<svg height="800" viewBox="0 0 800 799.99999" width="800" xmlns="http://www.w3.org/2000/svg" xmlns:xlink="http://www.w3.org/1999/xlink"><linearGradient id="a" gradientUnits="userSpaceOnUse" x1="411.752963" x2="959.429263" y1="757.36118" y2="499.87766"><stop offset="0" stop-color="#452a7a"/><stop offset="1" stop-color="#c2c2c2"/></linearGradient><path d="m211.0298 364.48388 309.72131-.15827c-4.01599 24.14902-59.07857 52.5221-114.89037 79.49871 0 0 46.15065 124.08001 56.69194 151.18275s32.75288 19.71655 38.25047 5.31524c5.49758-14.40131 77.44693-238.52878 77.44693-238.52878 6.96412-.15419 130.60288 371.47962 133.05203 371.00106 3.48372-.68072 22.63231.65786 20.40265-7.34951-17.4258-62.58111-124.24215-360.94351-119.45527-361.31278 55.71625-4.29817 129.38824-.338 150.36096-.16684 4.57192.0373 6.91831 8.6133 5.64436 10.26542-8.9634 11.62421-34.23006 53.44294-81.38099 65.77738l129.17236 373.49845 39.54234 1.13724 10.64743-13.09059 58.24684.5196-30.49135 61.08816-285.51044-1.31031c6.91282-16.87756 20.69842-30.39641 31.34399-46.14744l63.25392-1.28643s-91.02536-239.52772-98.89141-248.59239c-7.86604-9.06468-27.13266-12.40895-32.75099 3.49061s-64.79007 193.50841-83.31251 253.61428c-17.11883 55.5511-18.84434 39.83557-23.33463 36.59135-31.0695-22.44759-115.29429-270.48633-179.70006-420.2661-20.66539-25.08288-49.31332-49.84957-74.05951-74.77081z" fill="url(#a)" stroke="#fff" stroke-width="5" transform="translate(-166.76708 -212.91395)"/></svg>