<svg width="236" height="166" viewBox="0 0 236 166" fill="none" xmlns="http://www.w3.org/2000/svg">
<g clip-path="url(#clip0_29_8493)">
<path d="M185.374 69.3181C185.374 69.3181 220.466 52.7354 232.149 81.0083C243.832 109.281 228.255 144.438 190.22 156.128C152.186 167.818 124.883 145.391 119.041 148.335C113.2 151.279 103.464 163.922 79.0596 165.913C54.6553 167.905 50.8043 137.641 50.8043 137.641C50.8043 137.641 22.549 157.167 -1.85533 147.382C-26.2596 137.597 -31.0626 117.118 -21.2836 97.6342C-11.5045 78.1507 13.8084 78.1074 13.8084 78.1074C13.8084 78.1074 -0.816854 54.6838 15.7556 35.2002C32.328 15.7167 57.6842 34.2044 57.6842 34.2044C57.6842 34.2044 64.5209 1.99156 92.7762 0.0432066C121.032 -1.90515 134.705 35.1569 134.705 35.1569C134.705 35.1569 155.172 14.6775 169.797 22.471C184.422 30.2644 189.312 56.6322 185.374 69.2748V69.3181Z" fill="white"/>
</g>
<defs>
<clipPath id="clip0_29_8493">
<rect width="262" height="166" fill="white" transform="translate(-26)"/>
</clipPath>
</defs>
</svg>
