<?xml version="1.0" encoding="UTF-8"?><svg id="Capa_2" xmlns="http://www.w3.org/2000/svg" viewBox="0 0 11.62 11.08"><defs><style>.cls-1{fill:#fff;stroke-width:0px;}</style></defs><g id="Capa_2-2"><path class="cls-1" d="m9.07,11.04l-3.12-1.64c-.09-.05-.19-.05-.28,0l-3.12,1.64c-.22.12-.48-.07-.44-.32l.59-3.48c.02-.1-.02-.2-.09-.27L.09,4.52c-.18-.17-.08-.48.17-.51l3.49-.51c.1-.01.18-.08.23-.17L5.54.17c.11-.22.43-.22.54,0l1.56,3.16c.04.09.13.15.23.16l3.49.51c.25.04.35.34.17.51l-2.52,2.46c-.07.07-.1.17-.09.27l.6,3.48c.04.25-.22.43-.44.32Z"/></g></svg>